<svg xmlns="http://www.w3.org/2000/svg" xmlns:xlink="http://www.w3.org/1999/xlink" version="1.1" width="1000" height="1000" viewBox="0 0 1000 1000" xml:space="preserve">
<desc>Created with Fabric.js 3.5.0</desc>
<defs>
</defs>
<rect x="0" y="0" width="100%" height="100%" fill="#ffffff"/>
<g transform="matrix(0 1 -1 0 500 500)" id="834386">
<g style="" vector-effect="non-scaling-stroke">
		<g transform="matrix(0.1333 0 0 -0.1333 -172.4719 -278.0401)">
<path style="stroke: none; stroke-width: 1; stroke-dasharray: none; stroke-linecap: butt; stroke-dashoffset: 0; stroke-linejoin: miter; stroke-miterlimit: 4; is-custom-font: none; font-file-url: none; fill: rgb(0,0,0); fill-rule: nonzero; opacity: 1;" transform=" translate(-1706.5, -5085.2744)" d="M 1675 5148 c -104 -52 -125 -72 -125 -117 c 0 -69 5 -69 165 11 l 148 74 l -33 37 c -19 22 -41 37 -54 37 c -11 -1 -57 -19 -101 -42 z" stroke-linecap="round"/>
</g>
		<g transform="matrix(0.1333 0 0 -0.1333 181.009 -275.9374)">
<path style="stroke: none; stroke-width: 1; stroke-dasharray: none; stroke-linecap: butt; stroke-dashoffset: 0; stroke-linejoin: miter; stroke-miterlimit: 4; is-custom-font: none; font-file-url: none; fill: rgb(0,0,0); fill-rule: nonzero; opacity: 1;" transform=" translate(-4357.6076, -5069.5)" d="M 4231 5155 c -17 -20 -31 -37 -31 -40 c 0 -2 46 -28 103 -59 c 56 -30 121 -67 145 -81 l 42 -26 l 9 23 c 23 64 22 78 -6 106 c -37 37 -176 112 -206 112 c -16 0 -36 -13 -56 -35 z" stroke-linecap="round"/>
</g>
		<g transform="matrix(0.1333 0 0 -0.1333 149.9303 -224.5558)">
<path style="stroke: none; stroke-width: 1; stroke-dasharray: none; stroke-linecap: butt; stroke-dashoffset: 0; stroke-linejoin: miter; stroke-miterlimit: 4; is-custom-font: none; font-file-url: none; fill: rgb(0,0,0); fill-rule: nonzero; opacity: 1;" transform=" translate(-4124.6336, -4684.0449)" d="M 3709 5163 c -28 -17 -51 -52 -144 -223 c -61 -110 -78 -177 -56 -219 c 19 -34 157 -147 281 -229 c 222 -147 576 -302 691 -302 c 59 0 95 42 188 215 c 110 203 109 215 -14 324 c -168 150 -489 330 -730 411 c -131 43 -176 48 -216 23 z" stroke-linecap="round"/>
</g>
		<g transform="matrix(0.1333 0 0 -0.1333 -155.2199 -223.7693)">
<path style="stroke: none; stroke-width: 1; stroke-dasharray: none; stroke-linecap: butt; stroke-dashoffset: 0; stroke-linejoin: miter; stroke-miterlimit: 4; is-custom-font: none; font-file-url: none; fill: rgb(0,0,0); fill-rule: nonzero; opacity: 1;" transform=" translate(-1836.0163, -4678.1501)" d="M 2150 5145 c -94 -26 -220 -81 -476 -208 l -265 -132 l -124 -252 c -116 -238 -122 -253 -102 -258 c 12 -2 137 -25 278 -51 l 257 -46 l 233 122 c 292 153 425 231 490 289 c 44 40 52 52 56 91 c 4 41 -3 60 -72 199 c -93 188 -125 235 -166 250 c -39 13 -51 13 -109 -4 z" stroke-linecap="round"/>
</g>
		<g transform="matrix(0.1333 0 0 -0.1333 2.6077 -67.285)">
<path style="stroke: none; stroke-width: 1; stroke-dasharray: none; stroke-linecap: butt; stroke-dashoffset: 0; stroke-linejoin: miter; stroke-miterlimit: 4; is-custom-font: none; font-file-url: none; fill: rgb(0,0,0); fill-rule: nonzero; opacity: 1;" transform=" translate(-3020.0106, -3504.2961)" d="M 2945 4858 c -2 -7 -6 -44 -7 -83 l -3 -70 l -85 -5 l -85 -5 l 0 -95 l 0 -95 l 88 -3 l 87 -3 l 1 -52 c 2 -105 1 -108 -66 -169 c -78 -72 -108 -135 -109 -228 c 0 -78 28 -147 80 -201 l 35 -35 l -42 -47 c -25 -29 -49 -47 -62 -47 c -42 0 -224 49 -422 113 c -348 113 -432 131 -620 131 c -108 -1 -141 -4 -194 -23 c -129 -45 -229 -132 -282 -245 c -40 -86 -52 -161 -46 -296 c 8 -175 52 -296 222 -604 c 157 -285 211 -439 217 -608 l 1 -48 l 1362 0 l 1363 0 l 7 76 c 16 172 66 302 238 619 c 112 207 169 345 191 464 c 52 274 -38 501 -239 607 c -89 47 -153 59 -295 58 c -165 -2 -268 -24 -596 -129 c -146 -46 -300 -92 -344 -101 c -91 -20 -105 -16 -153 42 l -29 34 l 35 41 c 60 69 72 104 72 199 c 0 72 -4 93 -27 136 c -25 47 -82 109 -123 131 c -20 12 -31 90 -21 147 l 7 36 l 83 0 c 78 0 84 1 90 23 c 10 39 7 152 -6 165 c -7 7 -43 12 -90 12 l -77 0 l -3 83 l -3 82 l -73 3 c -52 2 -74 -1 -77 -10 z m -990 -1087 c 185 -39 513 -150 655 -221 l 75 -38 l 2 -50 c 1 -31 17 -88 39 -144 c 92 -233 134 -410 134 -556 c -1 -161 -77 -331 -176 -393 c -51 -31 -136 -24 -194 16 c -76 53 -144 165 -127 210 c 6 13 22 15 97 13 c 49 -1 93 1 96 5 c 9 8 -22 135 -37 153 c -8 10 -38 14 -100 14 c -102 0 -98 -4 -123 109 c -8 35 -19 68 -25 74 c -6 6 -46 12 -91 15 c -93 5 -93 5 -60 -94 c 34 -102 32 -104 -105 -92 c -44 3 -84 4 -89 1 c -13 -9 0 -121 18 -148 c 13 -20 26 -25 59 -26 c 23 -1 47 -2 52 -4 c 6 -1 34 -3 63 -3 c 47 -2 54 -5 71 -33 c 43 -71 33 -187 -19 -214 c -138 -71 -330 105 -565 520 c -137 240 -190 379 -202 525 c -10 135 35 251 123 313 c 93 65 260 83 429 48 z m 2430 5 c 115 -30 199 -103 231 -198 c 25 -78 16 -248 -20 -353 c -80 -231 -339 -654 -480 -783 c -102 -92 -204 -119 -263 -68 c -26 23 -28 30 -28 98 c 0 53 5 81 19 104 c 18 31 20 31 118 38 c 55 3 108 11 118 16 c 20 11 44 102 38 142 c -3 23 -5 23 -117 19 c -106 -3 -113 -2 -107 15 c 39 128 46 156 40 165 c -10 16 -163 6 -174 -11 c -4 -7 -13 -40 -20 -73 c -21 -108 -19 -107 -126 -107 c -79 0 -95 -3 -103 -18 c -14 -26 -36 -140 -28 -148 c 3 -4 46 -6 95 -5 c 99 2 108 -4 93 -57 c -21 -72 -84 -148 -153 -183 c -44 -23 -118 -25 -157 -4 c -48 24 -108 102 -141 181 c -72 174 -50 414 67 708 c 35 89 57 160 61 198 c 5 58 5 58 56 87 c 110 63 434 176 651 226 c 115 27 253 32 330 11 z" stroke-linecap="round"/>
</g>
		<g transform="matrix(0.1333 0 0 -0.1333 -99.7091 -149.805)">
<path style="stroke: none; stroke-width: 1; stroke-dasharray: none; stroke-linecap: butt; stroke-dashoffset: 0; stroke-linejoin: miter; stroke-miterlimit: 4; is-custom-font: none; font-file-url: none; fill: rgb(0,0,0); fill-rule: nonzero; opacity: 1;" transform=" translate(-2252.2577, -4123.4697)" d="M 2097 4326 c -75 -40 -141 -76 -146 -82 c -10 -11 107 -233 129 -245 c 25 -12 471 -152 474 -148 c 7 8 -294 544 -306 545 c -7 1 -75 -30 -151 -70 z" stroke-linecap="round"/>
</g>
		<g transform="matrix(0.1333 0 0 -0.1333 108.1881 -150.7351)">
<path style="stroke: none; stroke-width: 1; stroke-dasharray: none; stroke-linecap: butt; stroke-dashoffset: 0; stroke-linejoin: miter; stroke-miterlimit: 4; is-custom-font: none; font-file-url: none; fill: rgb(0,0,0); fill-rule: nonzero; opacity: 1;" transform=" translate(-3811.4852, -4130.4459)" d="M 3657 4132 c -81 -146 -145 -268 -143 -270 c 2 -2 89 24 193 57 c 103 33 211 66 238 74 c 50 14 50 14 107 118 c 31 57 57 109 57 114 c 1 6 -45 34 -101 62 c -57 29 -126 65 -154 82 l -51 30 l -146 -267 z" stroke-linecap="round"/>
</g>
		<g transform="matrix(0.1333 0 0 -0.1333 2.1867 155.9959)">
<path style="stroke: none; stroke-width: 1; stroke-dasharray: none; stroke-linecap: butt; stroke-dashoffset: 0; stroke-linejoin: miter; stroke-miterlimit: 4; is-custom-font: none; font-file-url: none; fill: rgb(0,0,0); fill-rule: nonzero; opacity: 1;" transform=" translate(-3016.75, -1830)" d="M 1620 1830 l 0 -120 l 1394 0 c 767 0 1396 3 1398 8 c 2 4 2 58 0 120 l -3 112 l -1395 0 l -1394 0 l 0 -120 z" stroke-linecap="round"/>
</g>
		<g transform="matrix(0.1333 0 0 -0.1333 -86.2006 236.6529)">
<path style="stroke: none; stroke-width: 1; stroke-dasharray: none; stroke-linecap: butt; stroke-dashoffset: 0; stroke-linejoin: miter; stroke-miterlimit: 4; is-custom-font: none; font-file-url: none; fill: rgb(0,0,0); fill-rule: nonzero; opacity: 1;" transform=" translate(-2353.5924, -1225)" d="M 2266 1598 c -14 -24 -86 -155 -160 -293 c -150 -276 -162 -313 -113 -361 c 34 -34 230 -134 262 -134 c 18 0 38 11 59 33 c 26 28 426 769 426 790 c 0 4 -101 7 -225 7 l -224 0 l -25 -42 z" stroke-linecap="round"/>
</g>
		<g transform="matrix(0.1333 0 0 -0.1333 94.3883 236.7688)">
<path style="stroke: none; stroke-width: 1; stroke-dasharray: none; stroke-linecap: butt; stroke-dashoffset: 0; stroke-linejoin: miter; stroke-miterlimit: 4; is-custom-font: none; font-file-url: none; fill: rgb(0,0,0); fill-rule: nonzero; opacity: 1;" transform=" translate(-3708.0097, -1224.1301)" d="M 3320 1634 c 0 -23 401 -761 428 -790 c 21 -21 43 -34 59 -34 c 36 0 240 108 269 144 c 43 50 32 76 -188 476 l -113 205 l -228 3 c -125 1 -227 -1 -227 -4 z" stroke-linecap="round"/>
</g>
</g>
</g>
</svg>